<svg width="15" height="15" fill="none" viewBox="0 0 15 15" xmlns="http://www.w3.org/2000/svg"><path fill="#fff" fill-rule="evenodd" d="M7.5 0A7.498 7.498 0 0 0 0 7.5a7.495 7.495 0 0 0 5.128 7.116c.375.065.516-.16.516-.357 0-.178-.01-.768-.01-1.396-1.884.346-2.371-.46-2.522-.882-.084-.215-.45-.881-.768-1.06-.263-.14-.638-.487-.01-.496.591-.01 1.013.544 1.153.769.675 1.134 1.754.815 2.185.618.066-.487.262-.815.478-1.003-1.669-.187-3.413-.834-3.413-3.703 0-.815.291-1.49.77-2.015-.076-.188-.338-.957.074-1.988 0 0 .628-.197 2.063.769a6.96 6.96 0 0 1 1.875-.253 6.96 6.96 0 0 1 1.875.253c1.434-.975 2.062-.769 2.062-.769.413 1.031.15 1.8.075 1.988.478.525.769 1.19.769 2.015 0 2.878-1.753 3.516-3.422 3.703.272.235.506.685.506 1.388 0 1.003-.009 1.81-.009 2.062 0 .197.14.432.516.357A7.512 7.512 0 0 0 15 7.5C15 3.356 11.644 0 7.5 0Z" clip-rule="evenodd"/></svg>