<svg width="15" height="15" viewBox="0 0 15 15" fill="none" xmlns="http://www.w3.org/2000/svg">
<path fill-rule="evenodd" clip-rule="evenodd" d="M15 7.5C15 11.6419 11.6419 15 7.5 15C3.35813 15 0 11.6419 0 7.5C0 3.35813 3.35813 0 7.5 0C11.6419 0 15 3.35813 15 7.5ZM7.76875 5.53688C7.03938 5.84 5.58125 6.46813 3.395 7.42063C3.04 7.56188 2.85375 7.7 2.83688 7.835C2.80813 8.06375 3.09437 8.15375 3.48312 8.27563C3.53625 8.2925 3.59125 8.30937 3.6475 8.32812C4.03062 8.4525 4.54563 8.59812 4.81313 8.60375C5.05625 8.60875 5.3275 8.50875 5.62688 8.30375C7.66938 6.92438 8.72375 6.2275 8.79 6.2125C8.83688 6.20187 8.90187 6.18812 8.94562 6.2275C8.98937 6.26625 8.985 6.34 8.98063 6.36C8.95188 6.48062 7.83062 7.52375 7.24937 8.06375C7.06812 8.23188 6.94 8.35125 6.91375 8.37875C6.855 8.43938 6.795 8.4975 6.7375 8.55313C6.38125 8.89563 6.115 9.15313 6.7525 9.57313C7.05875 9.775 7.30375 9.94188 7.54812 10.1081C7.815 10.29 8.08125 10.4712 8.42625 10.6975C8.51375 10.755 8.5975 10.8144 8.67938 10.8725C8.99 11.0944 9.26938 11.2931 9.61438 11.2619C9.81438 11.2431 10.0219 11.055 10.1269 10.4931C10.375 9.16437 10.8637 6.28688 10.9769 5.10063C10.9838 5.00213 10.9796 4.90318 10.9644 4.80563C10.9553 4.72683 10.9169 4.65433 10.8569 4.6025C10.7675 4.52937 10.6288 4.51375 10.5663 4.515C10.2844 4.52 9.85188 4.67063 7.76875 5.53688V5.53688Z" fill="white"/>
</svg>
