<svg width="15" height="15" fill="none" viewBox="0 0 15 15" xmlns="http://www.w3.org/2000/svg"><path fill="#fff" fill-rule="evenodd" d="M15 7.5a7.5 7.5 0 1 1-15 0 7.5 7.5 0 0 1 15 0ZM7.769 5.537c-.73.303-2.188.931-4.374 1.884-.355.14-.541.279-.558.414-.029.229.257.319.646.44l.164.053c.384.125.899.27 1.166.276.243.005.515-.095.814-.3 2.042-1.38 3.097-2.077 3.163-2.091.047-.011.112-.025.156.014.043.04.039.113.035.133-.03.12-1.15 1.164-1.732 1.704a17.66 17.66 0 0 0-.511.49c-.357.342-.623.6.014 1.02.307.201.552.368.796.534.267.182.533.363.878.59.088.057.172.116.253.175.311.221.59.42.935.389.2-.019.408-.207.513-.769.248-1.329.737-4.206.85-5.392a1.318 1.318 0 0 0-.013-.295.316.316 0 0 0-.107-.203.49.49 0 0 0-.29-.088c-.283.005-.715.156-2.798 1.022Z" clip-rule="evenodd"/></svg>