<svg width="15" height="15" viewBox="0 0 15 15" fill="none" xmlns="http://www.w3.org/2000/svg">
<g clip-path="url(#clip0_901_96)">
<path d="M9.80201 0H5.19748C0.995606 0 -0.000488281 0.996094 -0.000488281 5.19797V9.8025C-0.000488281 14.0044 0.995606 15.0005 5.19748 15.0005H9.80201C14.0039 15.0005 15 14.0044 15 9.8025V5.19797C15 0.996094 13.994 0 9.80201 0ZM12.1092 10.7006H11.0203C10.6078 10.7006 10.4808 10.3734 9.73873 9.62156C9.0942 8.99672 8.80873 8.91375 8.64982 8.91375C8.42529 8.91375 8.36154 8.97703 8.36154 9.285V10.2689C8.36154 10.5328 8.27857 10.6913 7.58014 10.6913C6.42514 10.6913 5.14357 9.99281 4.24498 8.69156C2.88982 6.78469 2.51904 5.35641 2.51904 5.06109C2.51904 4.90219 2.58232 4.75359 2.88748 4.75359H3.97873C4.25482 4.75359 4.35982 4.88062 4.46717 5.17594C5.0067 6.73359 5.90529 8.09812 6.27607 8.09812C6.41295 8.09812 6.47623 8.03484 6.47623 7.68562V6.07687C6.43451 5.33484 6.04404 5.27109 6.04404 5.00766C6.04404 4.88062 6.14904 4.75359 6.31732 4.75359H8.03342C8.26545 4.75359 8.35076 4.88062 8.35076 5.15391V7.32422C8.35076 7.55859 8.45576 7.64156 8.51904 7.64156C8.65592 7.64156 8.77311 7.55859 9.0267 7.30453C9.81045 6.42563 10.372 5.07047 10.372 5.07047C10.4451 4.91156 10.5722 4.76297 10.8483 4.76297H11.9395C12.2667 4.76297 12.3398 4.93125 12.2667 5.16563C12.1298 5.80031 10.7944 7.68516 10.7944 7.68516C10.6795 7.87547 10.6354 7.95844 10.7944 8.17078C10.9115 8.32969 11.2926 8.65922 11.5462 8.95453C12.0126 9.48422 12.3712 9.92859 12.4669 10.2361C12.5742 10.5412 12.4158 10.7002 12.1078 10.7002L12.1092 10.7006Z" fill="white"/>
</g>
<defs>
<clipPath id="clip0_901_96">
<rect width="15" height="15" fill="white"/>
</clipPath>
</defs>
</svg>
